<svg width="172" height="26" viewBox="0 0 172 26" fill="none" xmlns="http://www.w3.org/2000/svg">
<g clip-path="url(#clip0_31_460)">
<path d="M11.6327 24.6369H10.1488C7.94595 24.6369 6.73607 24.6369 5.67458 24.0854C4.73863 23.6 3.98912 22.835 3.51354 21.8796C2.97328 20.8 2.97328 19.5612 2.97328 17.3126V12.4932L2.65749 12.8544C2.20093 13.3709 1.41717 13.4136 0.911155 12.9476C0.405137 12.4816 0.363286 11.6816 0.819844 11.165L3.28906 8.36505C3.28906 8.36505 3.29287 8.36117 3.29667 8.35728L7.53886 3.54563C9.15203 1.7165 10.0385 0.706796 11.2408 0.279612C12.2909 -0.0932039 13.4475 -0.0932039 14.4976 0.279612C15.696 0.706796 16.5863 1.7165 18.2033 3.54563L24.9261 11.1689C25.3827 11.6854 25.3408 12.4854 24.8348 12.9515C24.3288 13.4175 23.545 13.3748 23.0885 12.8583L16.3694 5.23884C15.0264 3.7165 14.2883 2.88155 13.691 2.66796C13.1659 2.48155 12.5876 2.48155 12.0626 2.66796C11.4614 2.88155 10.7233 3.72039 9.38411 5.23884L5.45771 9.6932V17.3165C5.45771 19.1728 5.45771 20.1942 5.72784 20.734C5.96753 21.2117 6.34039 21.5922 6.80836 21.8369C7.33721 22.1126 8.33783 22.1126 10.1565 22.1126H11.6403C12.3251 22.1126 12.8768 22.6796 12.8768 23.3748C12.8768 24.0699 12.3213 24.6369 11.6403 24.6369H11.6327Z" fill="#64BC46"/>
<path d="M20.2765 14.6485C17.5905 14.6485 15.4104 16.8738 15.4104 19.6155V23.5806L14.2233 24.7922C13.9532 25.068 13.9532 25.5184 14.2233 25.7942C14.3603 25.934 14.5353 26.0039 14.7141 26.0039C14.893 26.0039 15.0718 25.934 15.205 25.7942L16.392 24.5825H20.2765C22.9626 24.5825 25.1427 22.3573 25.1427 19.6155V14.6485H20.2765ZM22.8561 17.9883L20.5657 20.3262H21.669C22.0533 20.3262 22.3653 20.6447 22.3653 21.0369C22.3653 21.4291 22.0533 21.7476 21.669 21.7476H19.177L18.6862 22.2485C18.5492 22.3884 18.3742 22.4583 18.1954 22.4583C18.0166 22.4583 17.8378 22.3884 17.7046 22.2485C17.4345 21.9728 17.4345 21.5223 17.7046 21.2466L18.1954 20.7456V18.2019C18.1954 17.8097 18.5074 17.4913 18.8917 17.4913C19.2759 17.4913 19.5879 17.8097 19.5879 18.2019V19.3282L21.8783 16.9903C22.1484 16.7146 22.5898 16.7146 22.8599 16.9903C23.13 17.266 23.13 17.7165 22.8599 17.9922L22.8561 17.9883Z" fill="#2B5127"/>
<path d="M38.2802 22.7806C36.9523 22.7806 35.7843 22.5553 34.7761 22.101C33.7678 21.6466 32.9194 21.0369 32.2346 20.2641C31.5497 19.4951 31.0361 18.6214 30.6899 17.6505C30.3437 16.6796 30.1725 15.666 30.1725 14.6136V14.1398C30.1725 13.1456 30.3437 12.1748 30.6785 11.2233C31.0171 10.2718 31.5155 9.41748 32.1699 8.65243C32.8243 7.88738 33.6385 7.28156 34.6049 6.82719C35.5713 6.37282 36.6822 6.14758 37.9377 6.14758C39.2922 6.14758 40.4907 6.40389 41.5369 6.91262C42.5794 7.42525 43.4202 8.13592 44.0556 9.05243C44.691 9.96893 45.0639 11.0291 45.178 12.2408H42.1495C42.0506 11.5651 41.8033 10.9825 41.4076 10.501C41.0119 10.0194 40.5135 9.6466 39.9162 9.38641C39.315 9.12622 38.6568 8.99806 37.9377 8.99806C37.2187 8.99806 36.5643 9.12622 35.9784 9.38641C35.3924 9.6466 34.894 10.0117 34.4869 10.4893C34.076 10.9631 33.764 11.534 33.5434 12.1981C33.3227 12.8621 33.2162 13.5961 33.2162 14.4C33.2162 15.2777 33.3341 16.0621 33.5776 16.7534C33.8173 17.4447 34.1559 18.0311 34.5935 18.5126C35.031 18.9942 35.5598 19.3631 36.18 19.6155C36.8002 19.868 37.5002 19.9922 38.2764 19.9922C39.3074 19.9922 40.2091 19.7748 40.9853 19.332C41.7614 18.8932 42.3245 18.3184 42.6783 17.6155L42.1495 20.101V16.0388H44.9231V19.5379C44.2611 20.5592 43.3556 21.3553 42.2142 21.9262C41.0728 22.4932 39.7602 22.7806 38.2764 22.7806H38.2802ZM37.7932 16.6447V14.3534H46.2167V16.6447H37.7932Z" fill="#64BC46"/>
<path d="M48.4614 22.3728V10.6408H50.7898V15.6117H50.7252C50.7252 13.9262 51.079 12.6524 51.7829 11.7864C52.4867 10.9204 53.5254 10.4893 54.8951 10.4893H55.3174V13.1029H54.5146C53.5254 13.1029 52.7606 13.3748 52.2166 13.9146C51.6725 14.4544 51.4024 15.235 51.4024 16.2602V22.3728H48.4614Z" fill="#64BC46"/>
<path d="M62.3446 22.7806C61.3554 22.7806 60.4917 22.6097 59.7498 22.2641C59.0079 21.9185 58.3953 21.4524 57.9084 20.8699C57.4214 20.2874 57.0561 19.635 56.8088 18.9126C56.5615 18.1942 56.4398 17.4563 56.4398 16.7107V16.299C56.4398 15.5223 56.5615 14.7689 56.8088 14.0427C57.0561 13.3165 57.4214 12.668 57.9084 12.0971C58.3953 11.5301 59.0003 11.0757 59.7194 10.7379C60.4384 10.4 61.2717 10.2291 62.2152 10.2291C63.4555 10.2291 64.498 10.5049 65.3388 11.0602C66.1797 11.6155 66.8112 12.3418 67.2335 13.2427C67.6559 14.1437 67.8689 15.1107 67.8689 16.1476V17.2272H57.6877V15.3903H66.0275L65.1182 16.299C65.1182 15.5495 65.0116 14.9087 64.8024 14.3767C64.5893 13.8447 64.2697 13.433 63.8398 13.1456C63.4099 12.8583 62.8696 12.7146 62.219 12.7146C61.5684 12.7146 61.0206 12.866 60.5678 13.1689C60.1151 13.4718 59.7726 13.9068 59.5405 14.4777C59.3085 15.0485 59.1905 15.7282 59.1905 16.5204C59.1905 17.2544 59.3047 17.9068 59.5291 18.4738C59.7536 19.0447 60.0998 19.4874 60.5678 19.8136C61.032 20.1359 61.6255 20.299 62.3446 20.299C63.0637 20.299 63.6496 20.1515 64.1023 19.8563C64.5551 19.5612 64.8442 19.1961 64.9698 18.7651H67.6787C67.5075 19.5728 67.1841 20.2757 66.7047 20.8816C66.2253 21.4874 65.6128 21.9534 64.8747 22.2874C64.1328 22.6175 63.2919 22.7845 62.3446 22.7845V22.7806Z" fill="#64BC46"/>
<path d="M75.4706 22.7806C74.4814 22.7806 73.6177 22.6097 72.8758 22.2641C72.1339 21.9185 71.5214 21.4524 71.0344 20.8699C70.5474 20.2874 70.1821 19.635 69.9348 18.9126C69.6875 18.1942 69.5658 17.4563 69.5658 16.7107V16.299C69.5658 15.5223 69.6875 14.7689 69.9348 14.0427C70.1821 13.3165 70.5474 12.668 71.0344 12.0971C71.5214 11.5301 72.1263 11.0757 72.8454 10.7379C73.5645 10.4 74.3977 10.2291 75.3413 10.2291C76.5816 10.2291 77.624 10.5049 78.4649 11.0602C79.3057 11.6155 79.9373 12.3418 80.3596 13.2427C80.7819 14.1437 80.995 15.1107 80.995 16.1476V17.2272H70.8137V15.3903H79.1535L78.2442 16.299C78.2442 15.5495 78.1377 14.9087 77.9284 14.3767C77.7154 13.8447 77.3958 13.433 76.9658 13.1456C76.5359 12.8583 75.9957 12.7146 75.3451 12.7146C74.6945 12.7146 74.1466 12.866 73.6938 13.1689C73.2411 13.4718 72.8987 13.9068 72.6666 14.4777C72.4345 15.0485 72.3166 15.7282 72.3166 16.5204C72.3166 17.2544 72.4307 17.9068 72.6552 18.4738C72.8796 19.0447 73.2259 19.4874 73.6938 19.8136C74.158 20.1359 74.7515 20.299 75.4706 20.299C76.1897 20.299 76.7756 20.1515 77.2284 19.8563C77.6811 19.5612 77.9703 19.1961 78.0958 18.7651H80.8047C80.6335 19.5728 80.3101 20.2757 79.8307 20.8816C79.3514 21.4874 78.7388 21.9534 78.0007 22.2874C77.2588 22.6175 76.418 22.7845 75.4706 22.7845V22.7806Z" fill="#64BC46"/>
<path d="M83.449 22.3728V10.6408H85.7774V15.6738H85.5644C85.5644 14.4777 85.7203 13.4796 86.0285 12.6796C86.3405 11.8796 86.8009 11.2777 87.4134 10.8738C88.026 10.4699 88.7907 10.268 89.7114 10.268H89.837C91.2066 10.268 92.2415 10.7184 92.9492 11.6194C93.653 12.5204 94.0069 13.8641 94.0069 15.6505V22.3689H91.0659V15.3903C91.0659 14.6718 90.8642 14.0854 90.4609 13.6388C90.0576 13.1922 89.506 12.9709 88.7983 12.9709C88.0906 12.9709 87.4971 13.1961 87.052 13.6505C86.6068 14.1049 86.3862 14.7146 86.3862 15.4757V22.3689H83.4452L83.449 22.3728Z" fill="#64BC46"/>
<path d="M97.3968 22.3728V6.60194H100.402V22.3728H97.3968ZM99.8508 15.8252V13.1262H108.084V15.8252H99.8508ZM107.536 22.3728V6.60194H110.542V22.3728H107.536Z" fill="#2B5127"/>
<path d="M119.643 22.7806C118.627 22.7806 117.729 22.6136 116.953 22.2835C116.177 21.9534 115.522 21.5029 114.986 20.932C114.449 20.3651 114.042 19.7204 113.768 18.9981C113.494 18.2796 113.357 17.5301 113.357 16.7495V16.2951C113.357 15.4874 113.502 14.7223 113.791 13.9961C114.08 13.2699 114.495 12.6214 115.039 12.0505C115.583 11.4835 116.241 11.0369 117.017 10.7107C117.794 10.3884 118.669 10.2252 119.643 10.2252C120.617 10.2252 121.492 10.3884 122.268 10.7107C123.044 11.033 123.702 11.4796 124.246 12.0505C124.79 12.6214 125.201 13.266 125.483 13.9961C125.764 14.7223 125.905 15.4913 125.905 16.2951V16.7495C125.905 17.5262 125.768 18.2757 125.494 18.9981C125.22 19.7165 124.813 20.3612 124.277 20.932C123.74 21.499 123.086 21.9495 122.31 22.2835C121.534 22.6136 120.643 22.7806 119.643 22.7806ZM119.643 20.2097C120.362 20.2097 120.97 20.0466 121.461 19.7243C121.952 19.4019 122.329 18.9592 122.584 18.4078C122.839 17.8524 122.964 17.2233 122.964 16.5165C122.964 15.8097 122.835 15.1573 122.572 14.6058C122.31 14.0505 121.929 13.6117 121.431 13.2893C120.929 12.967 120.335 12.8039 119.643 12.8039C118.95 12.8039 118.357 12.967 117.854 13.2893C117.352 13.6117 116.968 14.0544 116.702 14.6058C116.431 15.1612 116.298 15.7981 116.298 16.5165C116.298 17.235 116.428 17.8524 116.69 18.4078C116.953 18.9631 117.329 19.4019 117.824 19.7243C118.319 20.0466 118.924 20.2097 119.643 20.2097Z" fill="#2B5127"/>
<path d="M128.492 22.3728V10.6408H130.821V15.6738H130.608C130.608 14.4932 130.756 13.5029 131.053 12.7029C131.35 11.9029 131.791 11.2971 132.377 10.8893C132.963 10.4816 133.693 10.2718 134.568 10.2718H134.694C135.584 10.2718 136.318 10.4777 136.904 10.8893C137.49 11.301 137.928 11.9029 138.217 12.7029C138.506 13.5029 138.651 14.4932 138.651 15.6738H137.909C137.909 14.4932 138.061 13.5029 138.365 12.7029C138.67 11.9029 139.115 11.2971 139.697 10.8893C140.279 10.4816 141.013 10.2718 141.888 10.2718H142.014C142.904 10.2718 143.642 10.4777 144.236 10.8893C144.829 11.301 145.275 11.9029 145.579 12.7029C145.883 13.5029 146.035 14.4932 146.035 15.6738V22.3728H143.094V15.3942C143.094 14.6602 142.912 14.0738 142.543 13.635C142.178 13.1961 141.653 12.9748 140.975 12.9748C140.298 12.9748 139.754 13.2 139.347 13.6544C138.936 14.1087 138.734 14.7184 138.734 15.4796V22.3728H135.793V15.3942C135.793 14.6602 135.611 14.0738 135.242 13.635C134.876 13.1961 134.351 12.9748 133.674 12.9748C132.997 12.9748 132.453 13.2 132.046 13.6544C131.635 14.1087 131.433 14.7184 131.433 15.4796V22.3728H128.492Z" fill="#2B5127"/>
<path d="M154.333 22.7806C153.344 22.7806 152.481 22.6097 151.739 22.2641C150.997 21.9185 150.384 21.4524 149.897 20.8699C149.41 20.2874 149.045 19.635 148.798 18.9126C148.55 18.1942 148.429 17.4563 148.429 16.7107V16.299C148.429 15.5223 148.55 14.7689 148.798 14.0427C149.045 13.3165 149.41 12.668 149.897 12.0971C150.384 11.5301 150.989 11.0757 151.708 10.7379C152.427 10.4 153.26 10.2291 154.204 10.2291C155.444 10.2291 156.487 10.5049 157.328 11.0602C158.168 11.6155 158.8 12.3418 159.222 13.2427C159.645 14.1437 159.858 15.1107 159.858 16.1476V17.2272H149.677V15.3903H158.016L157.107 16.299C157.107 15.5495 157 14.9087 156.791 14.3767C156.578 13.8447 156.259 13.433 155.829 13.1456C155.399 12.8583 154.858 12.7146 154.208 12.7146C153.557 12.7146 153.009 12.866 152.557 13.1689C152.104 13.4718 151.761 13.9068 151.529 14.4777C151.297 15.0485 151.179 15.7282 151.179 16.5204C151.179 17.2544 151.293 17.9068 151.518 18.4738C151.742 19.0447 152.089 19.4874 152.557 19.8136C153.021 20.1359 153.614 20.299 154.333 20.299C155.052 20.299 155.638 20.1515 156.091 19.8563C156.544 19.5612 156.833 19.1961 156.959 18.7651H159.668C159.496 19.5728 159.173 20.2757 158.694 20.8816C158.214 21.4874 157.602 21.9534 156.864 22.2874C156.122 22.6175 155.281 22.7845 154.333 22.7845V22.7806Z" fill="#2B5127"/>
<path d="M166.485 22.7379C164.907 22.7379 163.666 22.3961 162.772 21.7126C161.874 21.0291 161.406 20.0816 161.364 18.8699H164.009C164.05 19.2738 164.271 19.6388 164.663 19.9728C165.059 20.3029 165.679 20.4699 166.527 20.4699C167.231 20.4699 167.794 20.3417 168.209 20.0816C168.624 19.8214 168.833 19.468 168.833 19.0214C168.833 18.633 168.673 18.3223 168.357 18.0932C168.042 17.8641 167.501 17.7126 166.737 17.6388L165.721 17.5301C164.435 17.3864 163.449 17.0136 162.757 16.4078C162.064 15.8019 161.718 14.9981 161.718 13.9884C161.718 13.1806 161.916 12.5049 162.312 11.9573C162.707 11.4097 163.255 10.9942 163.952 10.7146C164.648 10.435 165.451 10.2951 166.352 10.2951C167.764 10.2951 168.905 10.6136 169.78 11.2466C170.655 11.8796 171.112 12.8078 171.158 14.035H168.513C168.487 13.6311 168.289 13.2854 167.92 12.9981C167.555 12.7107 167.022 12.567 166.333 12.567C165.713 12.567 165.234 12.6913 164.895 12.9359C164.556 13.1806 164.385 13.499 164.385 13.8874C164.385 14.2757 164.522 14.5515 164.796 14.7534C165.07 14.9553 165.519 15.0913 166.139 15.165L167.155 15.2738C168.51 15.4175 169.571 15.7981 170.34 16.4194C171.108 17.0369 171.492 17.8757 171.492 18.9243C171.492 19.701 171.283 20.3767 170.868 20.9437C170.454 21.5107 169.872 21.9573 169.122 22.2718C168.373 22.5864 167.494 22.7456 166.478 22.7456L166.485 22.7379Z" fill="#2B5127"/>
</g>
<defs>
<clipPath id="clip0_31_460">
<rect width="171" height="26" fill="white" transform="translate(0.5)"/>
</clipPath>
</defs>
</svg>
